<mxfile host="app.diagrams.net" agent="Mozilla/5.0 (Windows NT 10.0; Win64; x64) AppleWebKit/537.36 (KHTML, like Gecko) Chrome/140.0.0.0 Safari/537.36" version="28.2.0">
  <diagram name="Page-1" id="hbupcDGGQJWf1DSkWxnB">
    <mxGraphModel dx="2037" dy="1061" grid="1" gridSize="10" guides="1" tooltips="1" connect="1" arrows="1" fold="1" page="1" pageScale="1" pageWidth="827" pageHeight="1169" math="0" shadow="0">
      <root>
        <mxCell id="0" />
        <mxCell id="1" parent="0" />
        <mxCell id="4oOhwnG7fQsXk4-Z049N-1" value="Deploy" style="ellipse;whiteSpace=wrap;html=1;aspect=fixed;" vertex="1" parent="1">
          <mxGeometry x="360" y="710" width="80" height="80" as="geometry" />
        </mxCell>
        <mxCell id="4oOhwnG7fQsXk4-Z049N-2" value="PLAN" style="ellipse;whiteSpace=wrap;html=1;aspect=fixed;" vertex="1" parent="1">
          <mxGeometry x="360" y="20" width="80" height="80" as="geometry" />
        </mxCell>
        <mxCell id="4oOhwnG7fQsXk4-Z049N-7" value="TEST" style="ellipse;whiteSpace=wrap;html=1;aspect=fixed;" vertex="1" parent="1">
          <mxGeometry x="360" y="430" width="80" height="80" as="geometry" />
        </mxCell>
        <mxCell id="4oOhwnG7fQsXk4-Z049N-8" value="BUILD" style="ellipse;whiteSpace=wrap;html=1;aspect=fixed;" vertex="1" parent="1">
          <mxGeometry x="360" y="280" width="80" height="80" as="geometry" />
        </mxCell>
        <mxCell id="4oOhwnG7fQsXk4-Z049N-9" value="DEVELOP" style="ellipse;whiteSpace=wrap;html=1;aspect=fixed;" vertex="1" parent="1">
          <mxGeometry x="360" y="160" width="80" height="80" as="geometry" />
        </mxCell>
        <mxCell id="4oOhwnG7fQsXk4-Z049N-11" value="Operate" style="ellipse;whiteSpace=wrap;html=1;aspect=fixed;" vertex="1" parent="1">
          <mxGeometry x="360" y="860" width="80" height="80" as="geometry" />
        </mxCell>
        <mxCell id="4oOhwnG7fQsXk4-Z049N-12" value="onitor" style="ellipse;whiteSpace=wrap;html=1;aspect=fixed;" vertex="1" parent="1">
          <mxGeometry x="360" y="1020" width="80" height="80" as="geometry" />
        </mxCell>
        <mxCell id="4oOhwnG7fQsXk4-Z049N-13" value="RELASE" style="ellipse;whiteSpace=wrap;html=1;aspect=fixed;" vertex="1" parent="1">
          <mxGeometry x="360" y="570" width="80" height="80" as="geometry" />
        </mxCell>
        <mxCell id="4oOhwnG7fQsXk4-Z049N-14" value="" style="html=1;shadow=0;dashed=0;align=center;verticalAlign=middle;shape=mxgraph.arrows2.arrow;dy=0.6;dx=40;direction=south;notch=0;" vertex="1" parent="1">
          <mxGeometry x="390" y="660" width="20" height="50" as="geometry" />
        </mxCell>
        <mxCell id="4oOhwnG7fQsXk4-Z049N-17" value="" style="edgeStyle=orthogonalEdgeStyle;rounded=0;orthogonalLoop=1;jettySize=auto;html=1;" edge="1" parent="1" source="4oOhwnG7fQsXk4-Z049N-15" target="4oOhwnG7fQsXk4-Z049N-16">
          <mxGeometry relative="1" as="geometry" />
        </mxCell>
        <mxCell id="4oOhwnG7fQsXk4-Z049N-15" value="" style="html=1;shadow=0;dashed=0;align=center;verticalAlign=middle;shape=mxgraph.arrows2.arrow;dy=0.6;dx=40;direction=south;notch=0;" vertex="1" parent="1">
          <mxGeometry x="390" y="250" width="20" height="50" as="geometry" />
        </mxCell>
        <mxCell id="4oOhwnG7fQsXk4-Z049N-16" value="" style="html=1;shadow=0;dashed=0;align=center;verticalAlign=middle;shape=mxgraph.arrows2.arrow;dy=0.6;dx=40;direction=south;notch=0;" vertex="1" parent="1">
          <mxGeometry x="390" y="380" width="20" height="50" as="geometry" />
        </mxCell>
        <mxCell id="4oOhwnG7fQsXk4-Z049N-18" value="" style="html=1;shadow=0;dashed=0;align=center;verticalAlign=middle;shape=mxgraph.arrows2.arrow;dy=0.6;dx=40;direction=south;notch=0;" vertex="1" parent="1">
          <mxGeometry x="394" y="520" width="20" height="50" as="geometry" />
        </mxCell>
        <mxCell id="4oOhwnG7fQsXk4-Z049N-19" value="" style="html=1;shadow=0;dashed=0;align=center;verticalAlign=middle;shape=mxgraph.arrows2.arrow;dy=0.6;dx=40;direction=south;notch=0;" vertex="1" parent="1">
          <mxGeometry x="390" y="800" width="20" height="50" as="geometry" />
        </mxCell>
        <mxCell id="4oOhwnG7fQsXk4-Z049N-20" value="" style="html=1;shadow=0;dashed=0;align=center;verticalAlign=middle;shape=mxgraph.arrows2.arrow;dy=0.6;dx=40;direction=south;notch=0;" vertex="1" parent="1">
          <mxGeometry x="390" y="940" width="20" height="70" as="geometry" />
        </mxCell>
        <mxCell id="4oOhwnG7fQsXk4-Z049N-21" value="" style="html=1;shadow=0;dashed=0;align=center;verticalAlign=middle;shape=mxgraph.arrows2.arrow;dy=0.6;dx=40;direction=south;notch=0;" vertex="1" parent="1">
          <mxGeometry x="394" y="100" width="20" height="70" as="geometry" />
        </mxCell>
      </root>
    </mxGraphModel>
  </diagram>
</mxfile>
